<mxfile host="65bd71144e">
    <diagram id="mUlXHQdTuSEJIEsKinfV" name="Page-1">
        <mxGraphModel dx="1115" dy="719" grid="1" gridSize="10" guides="1" tooltips="1" connect="1" arrows="1" fold="1" page="1" pageScale="1" pageWidth="1600" pageHeight="900" math="0" shadow="0">
            <root>
                <mxCell id="0"/>
                <mxCell id="1" parent="0"/>
                <mxCell id="2" value="" style="whiteSpace=wrap;html=1;aspect=fixed;" parent="1" vertex="1">
                    <mxGeometry x="50" y="140" width="370" height="370" as="geometry"/>
                </mxCell>
                <mxCell id="53" value="" style="rounded=1;whiteSpace=wrap;html=1;fillColor=#999999;" vertex="1" parent="1">
                    <mxGeometry x="60" y="210" width="340" height="100" as="geometry"/>
                </mxCell>
                <mxCell id="3" value="" style="whiteSpace=wrap;html=1;aspect=fixed;" parent="1" vertex="1">
                    <mxGeometry x="615" y="140" width="370" height="370" as="geometry"/>
                </mxCell>
                <mxCell id="45" value="&lt;h1&gt;MVC&lt;/h1&gt;" style="text;html=1;align=center;verticalAlign=middle;whiteSpace=wrap;rounded=0;" vertex="1" parent="1">
                    <mxGeometry x="210" y="170" width="60" height="30" as="geometry"/>
                </mxCell>
                <mxCell id="46" value="&lt;h1&gt;WebApi&lt;/h1&gt;" style="text;html=1;align=center;verticalAlign=middle;whiteSpace=wrap;rounded=0;" vertex="1" parent="1">
                    <mxGeometry x="770" y="170" width="60" height="30" as="geometry"/>
                </mxCell>
                <mxCell id="47" value="Model" style="ellipse;whiteSpace=wrap;html=1;" vertex="1" parent="1">
                    <mxGeometry x="80" y="220" width="120" height="80" as="geometry"/>
                </mxCell>
                <mxCell id="49" value="Vue" style="ellipse;whiteSpace=wrap;html=1;" vertex="1" parent="1">
                    <mxGeometry x="270" y="220" width="120" height="80" as="geometry"/>
                </mxCell>
                <mxCell id="50" value="" style="shape=cross;whiteSpace=wrap;html=1;size=0.28007869720458983;" vertex="1" parent="1">
                    <mxGeometry x="210" y="235" width="50" height="50" as="geometry"/>
                </mxCell>
                <mxCell id="54" value="" style="shape=singleArrow;direction=south;whiteSpace=wrap;html=1;" vertex="1" parent="1">
                    <mxGeometry x="212" y="320" width="36" height="60" as="geometry"/>
                </mxCell>
                <mxCell id="55" value="HTML" style="ellipse;whiteSpace=wrap;html=1;" vertex="1" parent="1">
                    <mxGeometry x="170" y="400" width="120" height="80" as="geometry"/>
                </mxCell>
                <mxCell id="60" value="" style="rounded=1;whiteSpace=wrap;html=1;fillColor=#999999;" vertex="1" parent="1">
                    <mxGeometry x="630" y="210" width="340" height="100" as="geometry"/>
                </mxCell>
                <mxCell id="61" value="Model" style="ellipse;whiteSpace=wrap;html=1;" vertex="1" parent="1">
                    <mxGeometry x="650" y="220" width="120" height="80" as="geometry"/>
                </mxCell>
                <mxCell id="62" value="Négocation de contenus (gérer les requette http)" style="ellipse;whiteSpace=wrap;html=1;" vertex="1" parent="1">
                    <mxGeometry x="840" y="220" width="120" height="80" as="geometry"/>
                </mxCell>
                <mxCell id="63" value="" style="shape=cross;whiteSpace=wrap;html=1;size=0.28007869720458983;" vertex="1" parent="1">
                    <mxGeometry x="780" y="235" width="50" height="50" as="geometry"/>
                </mxCell>
                <mxCell id="64" value="" style="shape=singleArrow;direction=south;whiteSpace=wrap;html=1;" vertex="1" parent="1">
                    <mxGeometry x="782" y="330" width="36" height="60" as="geometry"/>
                </mxCell>
                <mxCell id="65" value="Résultat" style="ellipse;whiteSpace=wrap;html=1;" vertex="1" parent="1">
                    <mxGeometry x="740" y="400" width="120" height="80" as="geometry"/>
                </mxCell>
                <mxCell id="66" value="&lt;h1&gt;VS&lt;/h1&gt;" style="text;html=1;align=center;verticalAlign=middle;whiteSpace=wrap;rounded=0;" vertex="1" parent="1">
                    <mxGeometry x="490" y="300" width="60" height="30" as="geometry"/>
                </mxCell>
            </root>
        </mxGraphModel>
    </diagram>
</mxfile>